<svg width="24" height="24" viewBox="0 0 24 24" fill="none" xmlns="http://www.w3.org/2000/svg">
<path d="M11.9996 21.0541C-7.99997 10 6.00002 -2 11.9996 5.58806C18 -2 32 10 11.9996 21.0541Z" fill="#ee4f4f"/>
<path d="M14.7185 10L14.7185 11.0977L13.5777 11.0977L13.5777 10L14.7185 10ZM10.3281 10L10.3281 11.0977L9.18734 11.0977L9.18734 10L10.3281 10Z" fill="white"/>
<path d="M17 14.9842C15.936 14.4345 15.1528 14.0774 14.6504 13.9128C13.8864 13.6642 13.0038 13.5399 12.0026 13.5399C10.9909 13.5399 10.0665 13.6817 9.2292 13.9653C8.71289 14.1404 7.96982 14.4853 7 15L7 14.3645C7.79539 13.8533 8.30298 13.5364 8.52276 13.4139C8.74254 13.2913 9.04082 13.1583 9.41758 13.0147C9.93389 12.8186 10.4851 12.6821 11.0712 12.605C11.3747 12.5665 11.6642 12.5473 11.9398 12.5473C12.9724 12.5473 13.8917 12.7101 14.6975 13.0357C15.2104 13.2423 15.9778 13.673 17 14.3277L17 14.9842Z" fill="white"/>
</svg>
